<svg width="113" height="95" viewBox="0 0 113 95" fill="none" xmlns="http://www.w3.org/2000/svg">
<circle cx="2" cy="2" r="2" fill="#333333"/>
<circle cx="29.25" cy="2" r="2" fill="#333333"/>
<circle cx="56.5" cy="2" r="2" fill="#333333"/>
<circle cx="83.75" cy="2" r="2" fill="#333333"/>
<circle cx="111" cy="2" r="2" fill="#333333"/>
<circle cx="2" cy="24.75" r="2" fill="#333333"/>
<circle cx="29.25" cy="24.75" r="2" fill="#333333"/>
<circle cx="56.5" cy="24.75" r="2" fill="#333333"/>
<circle cx="83.75" cy="24.75" r="2" fill="#333333"/>
<circle cx="111" cy="24.75" r="2" fill="#333333"/>
<circle cx="2" cy="47.5" r="2" fill="#333333"/>
<circle cx="29.25" cy="47.5" r="2" fill="#333333"/>
<circle cx="56.5" cy="47.5" r="2" fill="#333333"/>
<circle cx="83.75" cy="47.5" r="2" fill="#333333"/>
<circle cx="111" cy="47.5" r="2" fill="#333333"/>
<circle cx="2" cy="70.25" r="2" fill="#333333"/>
<circle cx="29.25" cy="70.25" r="2" fill="#333333"/>
<circle cx="56.5" cy="70.25" r="2" fill="#333333"/>
<circle cx="83.75" cy="70.25" r="2" fill="#333333"/>
<circle cx="111" cy="70.25" r="2" fill="#333333"/>
<circle cx="2" cy="93" r="2" fill="#333333"/>
<circle cx="29.25" cy="93" r="2" fill="#333333"/>
<circle cx="56.5" cy="93" r="2" fill="#333333"/>
<circle cx="83.75" cy="93" r="2" fill="#333333"/>
<circle cx="111" cy="93" r="2" fill="#333333"/>
</svg>
