<svg width="114" height="31" viewBox="0 0 114 31" fill="none" xmlns="http://www.w3.org/2000/svg">
<g clip-path="url(#clip0_274_599)">
<path d="M42.1248 2.61951e-05C42.0411 0.00091068 41.9588 0.022245 41.8851 0.0621836C41.8114 0.102122 41.7485 0.159462 41.7019 0.229244L41.1167 1.08048C41.0764 1.1363 41.0476 1.19963 41.0321 1.26676C41.0165 1.33389 41.0145 1.40347 41.0262 1.47139C41.0378 1.53931 41.0629 1.60422 41.0999 1.66229C41.1369 1.72035 41.1851 1.77041 41.2417 1.80953C41.2983 1.84864 41.3622 1.87601 41.4295 1.89003C41.4968 1.90405 41.5662 1.90444 41.6336 1.89118C41.7011 1.87791 41.7652 1.85126 41.8222 1.81279C41.8793 1.77432 41.9281 1.72481 41.9657 1.66716L42.5508 0.815921C42.6058 0.738178 42.6382 0.646732 42.6446 0.551675C42.6509 0.456619 42.631 0.361648 42.5869 0.277244C42.5428 0.19284 42.4764 0.122285 42.3948 0.0733665C42.3133 0.0244478 42.2199 -0.000932633 42.1248 2.61951e-05ZM44.3475 1.90143C44.2134 1.90197 44.0848 1.95485 43.989 2.04885L43.2407 2.76074C43.1415 2.85514 43.0837 2.9852 43.0801 3.1223C43.0765 3.25941 43.1274 3.39232 43.2216 3.49181C43.3157 3.59131 43.4454 3.64922 43.5822 3.65282C43.7189 3.65642 43.8515 3.6054 43.9507 3.511L44.699 2.79911C44.7756 2.72851 44.8291 2.63632 44.8525 2.53466C44.8758 2.43301 44.868 2.32664 44.83 2.22953C44.792 2.13242 44.7255 2.04911 44.6394 1.99056C44.5533 1.932 44.4515 1.90093 44.3475 1.90143ZM38.4338 2.04784C38.3486 2.04592 38.2642 2.0652 38.1883 2.10398C38.1123 2.14276 38.0471 2.19981 37.9985 2.27004C37.9499 2.34027 37.9195 2.42148 37.9098 2.50641C37.9002 2.59134 37.9117 2.67733 37.9434 2.7567C37.9434 2.7567 38.6688 4.73125 38.8598 7.91461C37.7007 6.77844 35.5745 5.14986 32.492 5.14986C29.531 5.14986 27.8231 6.2707 27.8231 6.2707C27.7543 6.31672 27.6976 6.37862 27.6577 6.45121C27.6178 6.5238 27.5959 6.60494 27.5939 6.68779C27.5918 6.77065 27.6096 6.85279 27.6458 6.92729C27.682 7.00179 27.7356 7.06647 27.8019 7.11588C30.3711 9.02382 32.2687 11.2423 33.4205 14.1964C32.6375 14.0148 31.889 13.9389 31.2029 13.9389C28.5432 13.9389 26.2866 15.0357 24.6507 16.6754C24.5864 16.74 24.5403 16.8205 24.5171 16.9087C24.4938 16.997 24.4943 17.0898 24.5185 17.1778C24.5426 17.2658 24.5896 17.3459 24.6545 17.4098C24.7195 17.4737 24.8002 17.5192 24.8884 17.5418C27.4994 18.2088 29.2914 20.3344 29.8312 21.0063C28.114 21.7998 27.1836 22.9319 27.1836 22.9319C27.1255 23.0086 27.0898 23.0999 27.0807 23.1958C27.0716 23.2916 27.0893 23.3881 27.1319 23.4743C27.1745 23.5606 27.2403 23.6332 27.3219 23.6841C27.4034 23.7349 27.4975 23.7618 27.5935 23.762C29.0465 23.762 30.0062 24.231 30.4758 24.49L29.2139 26.5984C29.165 26.6802 29.1397 26.774 29.1407 26.8694C29.1417 26.9647 29.169 27.058 29.2195 27.1388C29.2701 27.2196 29.3419 27.2847 29.4272 27.3271C29.5124 27.3695 29.6076 27.3875 29.7023 27.379L35.1235 26.8852C35.3856 27.0859 35.6714 27.2814 35.9806 27.4628C36.3565 28.1039 37.1197 28.8779 38.169 29.5904C39.2925 30.3532 40.7311 31 42.289 31C43.8562 31 45.2957 30.3536 46.4171 29.5904C47.4645 28.8775 48.2241 28.1021 48.5984 27.4628C49.1939 27.1133 49.6802 26.7145 50.1041 26.347H54.4064C54.4997 26.347 54.5912 26.3215 54.6713 26.2735C54.7513 26.2254 54.8169 26.1564 54.8609 26.0739C54.9049 25.9914 54.9258 25.8985 54.9213 25.805C54.9168 25.7115 54.8871 25.6211 54.8354 25.5432L54.0901 24.4223L56.7549 22.6411C56.8255 22.5939 56.8834 22.5299 56.9235 22.4549C56.9635 22.3798 56.9845 22.2961 56.9845 22.211C56.9845 22.1258 56.9635 22.0421 56.9235 21.967C56.8834 21.892 56.8255 21.828 56.7549 21.7808L54.2926 20.1349C56.4334 18.6926 57.4135 17.3277 57.4135 17.3277C57.4585 17.26 57.4869 17.1826 57.4964 17.1019C57.506 17.0211 57.4963 16.9392 57.4684 16.8629C57.4404 16.7865 57.3949 16.7179 57.3355 16.6625C57.2761 16.6071 57.2045 16.5665 57.1265 16.5441C57.1265 16.5441 54.8312 15.9843 52.5402 15.709C53.4478 15.2829 54.3983 14.8816 55.1969 14.3761C55.2914 14.3163 55.3639 14.2274 55.4036 14.1226C55.4433 14.0179 55.448 13.9031 55.417 13.7955C55.386 13.6878 55.321 13.5932 55.2317 13.5258C55.1424 13.4585 55.0337 13.422 54.922 13.4219H51.3539C51.4438 13.3283 51.4499 13.2711 51.5563 13.1806C51.975 12.8244 52.5045 12.506 52.9974 12.3687C53.1172 12.335 53.2208 12.2589 53.2891 12.1546C53.3573 12.0503 53.3857 11.9247 53.3689 11.8011C53.3521 11.6775 53.2912 11.5641 53.1976 11.4819C53.104 11.3997 52.9839 11.3543 52.8595 11.3539C51.5276 11.3539 50.6268 11.5198 49.9318 11.8356C49.5045 12.0297 49.1812 12.2832 48.8865 12.5525C48.8636 12.5133 48.8635 12.4922 48.8381 12.4505C48.6284 12.1052 48.3374 11.7038 47.9589 11.3155C47.288 10.6272 46.2778 10.0492 45.0494 9.90891C45.01 9.74829 44.9576 9.54935 44.8742 9.29093C44.6902 8.72086 44.3878 7.93898 43.9155 7.07852C42.9708 5.35761 41.337 3.31321 38.6332 2.09328C38.5705 2.06494 38.5027 2.04949 38.4338 2.04784ZM39.2617 3.63924C41.0751 4.74769 42.2791 6.24385 43.0111 7.57735C43.4458 8.3693 43.7264 9.09288 43.8933 9.61002C43.9768 9.86859 44.0322 10.0755 44.0645 10.2118C44.0805 10.2791 44.091 10.3293 44.0957 10.3552V10.3572C44.1048 10.486 44.1616 10.6066 44.2548 10.6955C44.2548 10.6955 44.4977 10.7595 44.6265 10.7935L44.6093 10.8369C45.7266 10.8369 46.5929 11.3933 47.2217 12.0385C47.5362 12.3611 47.7849 12.7029 47.9579 12.9877C48.1309 13.2725 48.2311 13.5359 48.2339 13.5471C48.2564 13.6374 48.3029 13.72 48.3684 13.786C48.4338 13.8521 48.5159 13.8992 48.6058 13.9223C48.6958 13.9455 48.7903 13.9439 48.8794 13.9176C48.9685 13.8914 49.0489 13.8415 49.1121 13.7733C49.5244 13.3282 49.8448 13.0107 50.3578 12.7777C50.4338 12.7432 50.5599 12.7248 50.6469 12.6939C50.2959 13.0364 49.9496 13.3792 49.8029 13.7471C49.7717 13.8255 49.7601 13.9103 49.7691 13.9943C49.7781 14.0782 49.8075 14.1587 49.8547 14.2286C49.9019 14.2985 49.9655 14.3558 50.0398 14.3954C50.1142 14.4351 50.1971 14.4558 50.2813 14.4559H52.7416C52.0366 14.8097 51.4119 15.1895 50.5985 15.5293C50.4883 15.5752 50.3974 15.6579 50.3412 15.7635C50.285 15.8691 50.2671 15.9909 50.2905 16.1083C50.3139 16.2256 50.3772 16.3312 50.4695 16.407C50.5619 16.4828 50.6776 16.5241 50.7969 16.5239C52.7753 16.5239 55.0755 17.0934 56.0439 17.3459C55.5851 17.8803 54.7963 18.6853 53.1102 19.6997C53.0357 19.7445 52.9736 19.8075 52.9298 19.8828C52.8861 19.9582 52.862 20.0434 52.8599 20.1305C52.8578 20.2177 52.8777 20.304 52.9178 20.3814C52.9578 20.4587 53.0168 20.5247 53.0891 20.5731L55.5393 22.211L53.0891 23.8488C52.9753 23.9249 52.8963 24.0431 52.8695 24.1776C52.8427 24.312 52.8702 24.4516 52.9461 24.5657L53.4426 25.313H51.1273C51.9458 24.2525 52.3291 22.9623 52.3348 21.6657C52.3525 21.4573 52.3103 21.3113 52.2421 21.1638C52.1711 21.0101 52.0962 20.8236 51.7879 20.7175C51.5939 20.6511 51.428 20.6503 51.2582 20.668C51.0883 20.6858 50.922 20.7183 50.7365 20.8407L50.7526 20.8296L50.5572 20.9487C49.7459 21.3098 49.1426 21.5395 48.2188 21.6162V21.0548C48.226 21.0052 48.226 20.9549 48.2188 20.9053V17.5579C48.2187 17.4557 48.1885 17.3558 48.1318 17.2708C48.0751 17.1858 47.9946 17.1195 47.9004 17.0804C47.8062 17.0413 47.7026 17.0311 47.6026 17.051C47.5026 17.0709 47.4107 17.1201 47.3386 17.1924C47.3386 17.1924 46.103 18.3549 44.8722 19.3624C44.9982 18.558 45.125 17.4823 45.125 16.0069C45.1249 15.9147 45.1002 15.8242 45.0535 15.7448C45.0068 15.6653 44.9397 15.5999 44.8593 15.5552C44.7789 15.5105 44.688 15.4882 44.596 15.4905C44.5041 15.4929 44.4145 15.5199 44.3364 15.5687C42.2366 16.8845 40.4954 18.4777 39.7441 19.1826C39.4795 18.1904 39.453 17.061 39.453 16.0069C39.453 15.9377 39.4392 15.8692 39.4124 15.8055C39.3855 15.7418 39.3462 15.6841 39.2967 15.6359C39.2472 15.5877 39.1886 15.5499 39.1242 15.5249C39.0599 15.4998 38.9913 15.4879 38.9223 15.4899C38.816 15.493 38.7133 15.529 38.6282 15.5929C38.6282 15.5929 36.3592 17.2822 36.3592 20.1429V20.8982C36.351 20.9511 36.351 21.0049 36.3592 21.0578V22.3463L35.3249 21.7434C35.3219 21.7414 35.3189 21.7394 35.3159 21.7374C35.3073 21.7314 35.2986 21.7257 35.2897 21.7202L33.8405 20.8397C33.655 20.7172 33.4897 20.6858 33.3198 20.668C33.15 20.6503 32.9841 20.6511 32.7901 20.7175H32.7881C32.4795 20.8242 32.4068 21.0095 32.3359 21.1628C32.2678 21.3102 32.2251 21.4554 32.2422 21.6637C32.2488 23.2333 32.8039 24.7952 34.0238 25.9471L30.6208 26.2571L31.645 24.5445C31.7131 24.4306 31.7348 24.2949 31.7057 24.1654C31.6767 24.0359 31.599 23.9225 31.4889 23.8488C31.4889 23.8488 30.3472 23.1263 28.7164 22.8542C29.189 22.4649 29.8981 21.9953 30.8545 21.6657C30.9306 21.6395 30.9996 21.5957 31.0559 21.538C31.1122 21.4802 31.1542 21.4101 31.1786 21.3331C31.2029 21.2562 31.209 21.1746 31.1963 21.0948C31.1835 21.0151 31.1523 20.9395 31.1052 20.874C31.1052 20.874 29.0353 18.0896 25.9791 16.9046C27.3715 15.7373 29.1224 14.9729 31.2029 14.9729C32.1929 14.9729 33.0664 14.9858 34.0852 15.4445C34.1759 15.4853 34.2765 15.4989 34.3747 15.4838C34.473 15.4686 34.5648 15.4253 34.6391 15.359C34.7133 15.2928 34.7669 15.2064 34.7934 15.1103C34.8198 15.0142 34.818 14.9125 34.7882 14.8174C33.7194 11.414 31.6875 8.91938 29.0608 6.82507C29.6622 6.54465 30.6554 6.18386 32.492 6.18386C36.5918 6.18386 39.0331 9.58679 39.0331 9.58679C39.0965 9.67608 39.1867 9.74282 39.2905 9.77737C39.3943 9.81192 39.5063 9.81249 39.6105 9.779C39.7146 9.7455 39.8054 9.67968 39.8698 9.59104C39.9342 9.5024 39.9688 9.39554 39.9687 9.28588C39.9687 6.49083 39.5781 4.75575 39.2617 3.63924ZM46.1311 4.20976C46.0327 4.21063 45.9366 4.23971 45.8541 4.29357L44.981 4.84592C44.9237 4.88219 44.8741 4.92941 44.8351 4.98489C44.796 5.04037 44.7682 5.10302 44.7533 5.16926C44.7384 5.23551 44.7366 5.30405 44.7481 5.37098C44.7596 5.4379 44.7842 5.5019 44.8203 5.55932C44.8565 5.61674 44.9036 5.66645 44.9589 5.70562C45.0143 5.74479 45.0768 5.77265 45.1428 5.7876C45.2089 5.80256 45.2773 5.80432 45.344 5.79278C45.4107 5.78125 45.4746 5.75665 45.5318 5.72038L46.404 5.16803C46.5002 5.10909 46.5745 5.02013 46.6155 4.9148C46.6565 4.80946 46.662 4.69355 46.631 4.58482C46.6 4.4761 46.5344 4.38054 46.4441 4.3128C46.3538 4.24506 46.2438 4.20887 46.1311 4.20976ZM47.4473 6.81598C47.3835 6.81644 47.3204 6.82876 47.261 6.85233L46.2982 7.22393C46.1706 7.27321 46.0677 7.37132 46.0121 7.49668C45.9566 7.62204 45.953 7.76438 46.0022 7.8924C46.0513 8.02041 46.1492 8.1236 46.2742 8.17928C46.3992 8.23495 46.5412 8.23855 46.6689 8.18927L47.6316 7.81767C47.7454 7.77529 47.8406 7.69405 47.9004 7.58825C47.9603 7.48244 47.9811 7.35885 47.9591 7.23921C47.9371 7.11957 47.8737 7.01155 47.7801 6.93414C47.6865 6.85673 47.5687 6.81489 47.4473 6.81598ZM44.0152 17.1005C43.9041 19.2238 43.6043 20.4964 43.6043 20.4964C43.5702 20.5986 43.5689 20.709 43.6005 20.812C43.6321 20.915 43.695 21.0056 43.7804 21.071C43.8659 21.1364 43.9696 21.1734 44.077 21.1769C44.1845 21.1803 44.2903 21.15 44.3797 21.0901C45.43 20.3881 46.4472 19.4644 47.1875 18.7626V20.6771C46.3191 21.1455 44.9784 21.9931 43.7976 22.8219C43.7401 22.86 43.6909 22.9093 43.6527 22.9668C43.6145 23.0243 43.5882 23.089 43.5754 23.1568C43.5626 23.2247 43.5634 23.2945 43.578 23.3621C43.5925 23.4296 43.6204 23.4936 43.6599 23.5501C43.6995 23.6067 43.75 23.6547 43.8084 23.6914C43.8668 23.7281 43.932 23.7526 44 23.7636C44.0681 23.7746 44.1376 23.7718 44.2046 23.7554C44.2715 23.739 44.3345 23.7093 44.3898 23.6681C44.4684 23.6129 44.554 23.5571 44.6345 23.5014C44.6771 23.7236 44.7737 23.9206 44.9091 24.0614C45.0446 24.2021 45.2112 24.2787 45.3828 24.279C45.5879 24.279 45.7847 24.17 45.9297 23.9761C46.0748 23.7822 46.1562 23.5192 46.1562 23.245C46.156 23.0116 46.0967 22.7853 45.9881 22.6027C46.419 22.3271 46.8325 22.0702 47.1875 21.8616V22.211C47.1875 22.3481 47.2419 22.4796 47.3385 22.5765C47.4352 22.6735 47.5664 22.7279 47.7031 22.728C48.0934 22.728 48.4305 22.6993 48.7415 22.6542C48.7404 22.6786 48.7344 22.7041 48.7344 22.728C48.7344 23.283 48.6838 25.2564 47.7726 26.8307C47.7684 26.838 47.7644 26.8454 47.7605 26.8529C47.586 27.1918 46.8411 28.0514 45.838 28.7341C44.8349 29.4168 43.5681 29.966 42.289 29.966C41.0212 29.966 39.7531 29.4172 38.747 28.7341C37.741 28.051 36.9907 27.1893 36.8175 26.8529H36.8164C36.8129 26.8454 36.8092 26.838 36.8054 26.8307C36.0767 25.5717 35.9039 24.0919 35.8617 23.252L36.616 23.6923C36.6944 23.7379 36.7834 23.762 36.874 23.7621C36.9646 23.7622 37.0537 23.7384 37.1322 23.6931C37.2107 23.6477 37.276 23.5824 37.3213 23.5037C37.3666 23.4251 37.3905 23.3358 37.3905 23.245V21.8616C37.7452 22.07 38.1585 22.3264 38.5889 22.6017C38.4805 22.7848 38.4216 23.0115 38.4218 23.245C38.4218 23.5192 38.5032 23.7822 38.6483 23.9761C38.7933 24.17 38.9901 24.279 39.1952 24.279C39.3668 24.2787 39.5334 24.2021 39.6689 24.0614C39.8043 23.9206 39.9009 23.7236 39.9435 23.5014C40.024 23.5571 40.1096 23.6129 40.1882 23.6681C40.2435 23.7093 40.3065 23.739 40.3734 23.7554C40.4404 23.7718 40.5099 23.7746 40.578 23.7636C40.646 23.7526 40.7112 23.7281 40.7696 23.6914C40.828 23.6547 40.8785 23.6067 40.9181 23.5501C40.9576 23.4936 40.9855 23.4296 41 23.3621C41.0146 23.2945 41.0154 23.2247 41.0026 23.1568C40.9898 23.089 40.9635 23.0243 40.9253 22.9668C40.8871 22.9093 40.8379 22.86 40.7804 22.8219C39.5996 21.9931 38.2589 21.1455 37.3905 20.6771V20.1429C37.3905 18.8502 37.9177 17.9368 38.4298 17.2964C38.4315 18.2988 38.4893 19.3665 38.9918 20.3742C39.0281 20.4469 39.0809 20.51 39.1461 20.5584C39.2113 20.6068 39.2869 20.6391 39.3669 20.6527C39.4469 20.6663 39.5289 20.6607 39.6063 20.6366C39.6838 20.6124 39.7544 20.5702 39.8126 20.5135C39.8126 20.5135 41.8631 18.62 44.0152 17.1005ZM33.2836 21.7485L34.7227 22.5876C34.773 22.6352 34.8112 22.672 34.8123 22.6684C34.8123 22.676 34.8123 22.6842 34.8123 22.728C34.8123 23.1365 34.8446 24.2928 35.2011 25.5765C35.0913 25.4821 34.9434 25.3955 34.8405 25.3049C33.784 24.3747 33.3097 23.0977 33.2836 21.7485ZM51.2924 21.7555C51.265 23.102 50.7915 24.3766 49.7365 25.3059C49.634 25.3961 49.4864 25.4824 49.3769 25.5765C49.7334 24.2928 49.7657 23.1365 49.7657 22.728C49.7657 22.6842 49.7657 22.676 49.7657 22.6684C49.7668 22.6722 49.8071 22.6324 49.8624 22.5805L50.9782 21.902C51.081 21.8537 51.1848 21.8055 51.2924 21.7555ZM43.5972 26.3409C43.5133 26.3385 43.4302 26.3567 43.3549 26.3938C43.2796 26.4309 43.2145 26.4859 43.1652 26.554C43.1652 26.554 43.1411 26.5964 43.002 26.6822C42.8629 26.7681 42.642 26.864 42.289 26.864C41.936 26.864 41.7151 26.7681 41.576 26.6822C41.4369 26.5964 41.4128 26.554 41.4128 26.554C41.3722 26.4996 41.3213 26.4538 41.2631 26.4191C41.2048 26.3845 41.1403 26.3617 41.0733 26.352C41.0062 26.3424 40.9379 26.346 40.8723 26.3629C40.8067 26.3797 40.745 26.4093 40.6907 26.45C40.6365 26.4907 40.5908 26.5417 40.5563 26.6001C40.5217 26.6585 40.499 26.7232 40.4893 26.7904C40.4797 26.8577 40.4834 26.9261 40.5001 26.9919C40.5169 27.0578 40.5464 27.1196 40.587 27.174C40.587 27.174 40.7563 27.3901 41.0362 27.5627C41.316 27.7354 41.7396 27.898 42.289 27.898C42.8384 27.898 43.262 27.7354 43.5418 27.5627C43.8217 27.3901 43.991 27.174 43.991 27.174C44.0492 27.0985 44.0854 27.0083 44.0957 26.9134C44.1059 26.8185 44.0897 26.7226 44.049 26.6363C44.0082 26.5501 43.9444 26.4768 43.8647 26.4247C43.7849 26.3725 43.6924 26.3436 43.5972 26.3409Z" fill="#D90416"/>
<path d="M72.38 21V15.776H68.22V21H66.836V9.98401H68.22V14.64H72.38V9.98401H73.764V21H72.38ZM82.0298 18.192H77.6698L76.7898 21H75.4218L79.0058 9.98401H80.7818L84.3658 21H82.9098L82.0298 18.192ZM78.0298 17.04H81.6698L79.8618 11.152L78.0298 17.04ZM91.0075 21L87.1275 11.312C87.1328 11.4347 87.1435 11.64 87.1595 11.928C87.1808 12.2107 87.2022 12.5493 87.2235 12.944C87.2502 13.3333 87.2715 13.7467 87.2875 14.184C87.3035 14.6213 87.3115 15.0533 87.3115 15.48V21H86.0235V9.98401H87.9035L91.8475 19.712C91.8422 19.5573 91.8235 19.2747 91.7915 18.864C91.7595 18.448 91.7302 17.9467 91.7035 17.36C91.6768 16.7733 91.6635 16.152 91.6635 15.496V9.98401H92.9515V21H91.0075ZM101.217 18.192H96.8573L95.9773 21H94.6093L98.1933 9.98401H99.9693L103.553 21H102.097L101.217 18.192ZM97.2173 17.04H100.857L99.0493 11.152L97.2173 17.04ZM110.195 21L106.315 11.312C106.32 11.4347 106.331 11.64 106.347 11.928C106.368 12.2107 106.39 12.5493 106.411 12.944C106.438 13.3333 106.459 13.7467 106.475 14.184C106.491 14.6213 106.499 15.0533 106.499 15.48V21H105.211V9.98401H107.091L111.035 19.712C111.03 19.5573 111.011 19.2747 110.979 18.864C110.947 18.448 110.918 17.9467 110.891 17.36C110.864 16.7733 110.851 16.152 110.851 15.496V9.98401H112.139V21H110.195Z" fill="white"/>
</g>
<defs>
<clipPath id="clip0_274_599">
<rect width="114" height="31" fill="white"/>
</clipPath>
</defs>
</svg>
