<svg width="120" height="39" viewBox="0 0 120 39" fill="none" xmlns="http://www.w3.org/2000/svg">
<g filter="url(#filter0_d_3_456)">
<path d="M45.6248 2.6195e-05C45.5411 0.00091068 45.4588 0.022245 45.3851 0.0621836C45.3114 0.102122 45.2485 0.159462 45.2019 0.229244L44.6167 1.08048C44.5764 1.1363 44.5476 1.19963 44.5321 1.26676C44.5165 1.33389 44.5145 1.40347 44.5262 1.47139C44.5378 1.53931 44.5629 1.60422 44.5999 1.66229C44.6369 1.72035 44.6851 1.77041 44.7417 1.80953C44.7983 1.84864 44.8622 1.87601 44.9295 1.89003C44.9968 1.90405 45.0662 1.90444 45.1336 1.89118C45.2011 1.87791 45.2652 1.85126 45.3222 1.81279C45.3793 1.77432 45.4281 1.72481 45.4657 1.66716L46.0508 0.815921C46.1058 0.738178 46.1382 0.646732 46.1446 0.551675C46.1509 0.456619 46.131 0.361648 46.0869 0.277244C46.0428 0.19284 45.9764 0.122285 45.8948 0.0733665C45.8133 0.0244478 45.7199 -0.000932633 45.6248 2.6195e-05ZM47.8475 1.90143C47.7134 1.90197 47.5848 1.95485 47.489 2.04885L46.7407 2.76074C46.6415 2.85514 46.5837 2.9852 46.5801 3.1223C46.5765 3.25941 46.6274 3.39232 46.7216 3.49181C46.8157 3.59131 46.9454 3.64922 47.0822 3.65282C47.2189 3.65642 47.3515 3.6054 47.4507 3.511L48.199 2.79911C48.2756 2.72851 48.3291 2.63632 48.3525 2.53466C48.3758 2.43301 48.368 2.32664 48.33 2.22953C48.292 2.13242 48.2255 2.04911 48.1394 1.99056C48.0533 1.932 47.9515 1.90093 47.8475 1.90143ZM41.9338 2.04784C41.8486 2.04592 41.7642 2.0652 41.6883 2.10398C41.6123 2.14276 41.5471 2.19981 41.4985 2.27004C41.4499 2.34027 41.4195 2.42148 41.4098 2.50641C41.4002 2.59134 41.4117 2.67733 41.4434 2.7567C41.4434 2.7567 42.1688 4.73125 42.3598 7.91461C41.2007 6.77844 39.0745 5.14986 35.992 5.14986C33.031 5.14986 31.3231 6.2707 31.3231 6.2707C31.2543 6.31672 31.1976 6.37862 31.1577 6.45121C31.1178 6.5238 31.0959 6.60494 31.0939 6.68779C31.0918 6.77065 31.1096 6.85279 31.1458 6.92729C31.182 7.00179 31.2356 7.06647 31.3019 7.11588C33.8711 9.02382 35.7687 11.2423 36.9205 14.1964C36.1375 14.0148 35.389 13.9389 34.7029 13.9389C32.0432 13.9389 29.7866 15.0357 28.1507 16.6754C28.0864 16.74 28.0403 16.8205 28.0171 16.9087C27.9938 16.997 27.9943 17.0898 28.0185 17.1778C28.0426 17.2658 28.0896 17.3459 28.1545 17.4098C28.2195 17.4737 28.3002 17.5192 28.3884 17.5418C30.9994 18.2087 32.7914 20.3344 33.3312 21.0063C31.614 21.7998 30.6836 22.9319 30.6836 22.9319C30.6255 23.0086 30.5898 23.0999 30.5807 23.1958C30.5716 23.2916 30.5893 23.3881 30.6319 23.4743C30.6745 23.5606 30.7403 23.6332 30.8219 23.6841C30.9034 23.7349 30.9975 23.7618 31.0935 23.762C32.5465 23.762 33.5062 24.231 33.9758 24.49L32.7139 26.5984C32.665 26.6802 32.6397 26.774 32.6407 26.8694C32.6417 26.9647 32.669 27.058 32.7195 27.1388C32.7701 27.2196 32.8419 27.2847 32.9272 27.3271C33.0124 27.3695 33.1076 27.3875 33.2023 27.379L38.6235 26.8852C38.8856 27.0859 39.1714 27.2814 39.4806 27.4628C39.8565 28.1039 40.6197 28.8779 41.669 29.5904C42.7925 30.3532 44.2311 31 45.789 31C47.3562 31 48.7957 30.3536 49.9171 29.5904C50.9645 28.8775 51.7241 28.1021 52.0984 27.4628C52.6939 27.1133 53.1802 26.7145 53.6041 26.347H57.9064C57.9997 26.347 58.0912 26.3215 58.1713 26.2735C58.2513 26.2254 58.3169 26.1564 58.3609 26.0739C58.4049 25.9914 58.4258 25.8985 58.4213 25.805C58.4168 25.7115 58.3871 25.6211 58.3354 25.5432L57.5901 24.4223L60.2549 22.6411C60.3255 22.5939 60.3834 22.5299 60.4235 22.4549C60.4635 22.3798 60.4845 22.2961 60.4845 22.211C60.4845 22.1258 60.4635 22.0421 60.4235 21.967C60.3834 21.892 60.3255 21.828 60.2549 21.7808L57.7926 20.1349C59.9334 18.6926 60.9135 17.3277 60.9135 17.3277C60.9585 17.26 60.9869 17.1826 60.9964 17.1019C61.006 17.0211 60.9963 16.9392 60.9684 16.8629C60.9404 16.7865 60.8949 16.7179 60.8355 16.6625C60.7761 16.6071 60.7045 16.5665 60.6265 16.5441C60.6265 16.5441 58.3312 15.9843 56.0402 15.709C56.9478 15.2829 57.8983 14.8816 58.6969 14.3761C58.7914 14.3163 58.8639 14.2274 58.9036 14.1226C58.9433 14.0179 58.948 13.9031 58.917 13.7955C58.886 13.6878 58.821 13.5932 58.7317 13.5258C58.6424 13.4585 58.5337 13.422 58.422 13.4219H54.8539C54.9438 13.3283 54.9499 13.2711 55.0563 13.1806C55.475 12.8244 56.0045 12.506 56.4974 12.3687C56.6172 12.335 56.7208 12.2589 56.7891 12.1546C56.8573 12.0503 56.8857 11.9247 56.8689 11.8011C56.8521 11.6775 56.7912 11.5641 56.6976 11.4819C56.604 11.3997 56.4839 11.3543 56.3595 11.3539C55.0276 11.3539 54.1268 11.5198 53.4318 11.8356C53.0045 12.0297 52.6812 12.2832 52.3865 12.5525C52.3636 12.5133 52.3635 12.4922 52.3381 12.4505C52.1284 12.1052 51.8374 11.7038 51.4589 11.3155C50.788 10.6272 49.7778 10.0492 48.5494 9.90891C48.51 9.74829 48.4576 9.54935 48.3742 9.29093C48.1902 8.72086 47.8878 7.93898 47.4155 7.07852C46.4708 5.35761 44.837 3.31321 42.1332 2.09328C42.0705 2.06494 42.0027 2.04949 41.9338 2.04784ZM42.7617 3.63924C44.5751 4.74769 45.7791 6.24385 46.5111 7.57735C46.9458 8.3693 47.2264 9.09288 47.3933 9.61002C47.4768 9.86859 47.5322 10.0755 47.5645 10.2118C47.5805 10.2791 47.591 10.3293 47.5957 10.3552V10.3572C47.6048 10.486 47.6616 10.6066 47.7549 10.6955C47.7549 10.6955 47.9977 10.7595 48.1265 10.7935L48.1093 10.8369C49.2266 10.8369 50.0929 11.3933 50.7217 12.0385C51.0362 12.3611 51.2849 12.7029 51.4579 12.9877C51.6309 13.2725 51.7311 13.5359 51.7339 13.5471C51.7564 13.6374 51.8029 13.72 51.8684 13.786C51.9338 13.8521 52.0159 13.8992 52.1058 13.9223C52.1958 13.9455 52.2903 13.9439 52.3794 13.9176C52.4685 13.8914 52.5489 13.8415 52.6121 13.7733C53.0244 13.3282 53.3448 13.0107 53.8578 12.7777C53.9338 12.7431 54.0599 12.7248 54.1469 12.6939C53.7959 13.0364 53.4496 13.3792 53.3029 13.7471C53.2717 13.8255 53.2601 13.9103 53.2691 13.9943C53.2781 14.0782 53.3075 14.1587 53.3547 14.2286C53.4019 14.2985 53.4655 14.3558 53.5398 14.3954C53.6142 14.4351 53.6971 14.4558 53.7813 14.4559H56.2416C55.5366 14.8097 54.9119 15.1895 54.0985 15.5293C53.9883 15.5752 53.8974 15.6579 53.8412 15.7635C53.785 15.8691 53.7671 15.9909 53.7905 16.1083C53.8139 16.2256 53.8772 16.3312 53.9695 16.407C54.0619 16.4828 54.1776 16.5241 54.2969 16.5239C56.2753 16.5239 58.5755 17.0934 59.5439 17.3459C59.0851 17.8803 58.2963 18.6853 56.6102 19.6996C56.5357 19.7445 56.4736 19.8075 56.4298 19.8828C56.3861 19.9582 56.362 20.0434 56.3599 20.1305C56.3578 20.2177 56.3777 20.304 56.4178 20.3814C56.4578 20.4587 56.5168 20.5247 56.5891 20.5731L59.0393 22.211L56.5891 23.8488C56.4753 23.9249 56.3963 24.0431 56.3695 24.1776C56.3427 24.312 56.3702 24.4516 56.4461 24.5657L56.9426 25.313H54.6273C55.4458 24.2525 55.8291 22.9623 55.8348 21.6657C55.8525 21.4573 55.8103 21.3113 55.7421 21.1638C55.6711 21.0101 55.5962 20.8236 55.2879 20.7175C55.0939 20.6511 54.928 20.6503 54.7582 20.668C54.5883 20.6858 54.422 20.7183 54.2365 20.8407L54.2526 20.8296L54.0572 20.9487C53.2459 21.3098 52.6426 21.5395 51.7188 21.6162V21.0548C51.726 21.0052 51.726 20.9549 51.7188 20.9053V17.5579C51.7187 17.4557 51.6885 17.3558 51.6318 17.2708C51.5751 17.1858 51.4946 17.1195 51.4004 17.0804C51.3062 17.0413 51.2026 17.0311 51.1026 17.051C51.0026 17.0709 50.9107 17.1201 50.8386 17.1924C50.8386 17.1924 49.603 18.3549 48.3722 19.3624C48.4982 18.558 48.625 17.4823 48.625 16.0069C48.6249 15.9147 48.6002 15.8242 48.5535 15.7448C48.5068 15.6653 48.4397 15.5999 48.3593 15.5552C48.2789 15.5105 48.188 15.4882 48.096 15.4905C48.0041 15.4929 47.9145 15.5199 47.8364 15.5687C45.7366 16.8845 43.9954 18.4777 43.2441 19.1826C42.9795 18.1904 42.953 17.061 42.953 16.0069C42.953 15.9377 42.9392 15.8692 42.9124 15.8055C42.8855 15.7418 42.8462 15.6841 42.7967 15.6359C42.7472 15.5877 42.6886 15.5499 42.6242 15.5249C42.5599 15.4998 42.4913 15.4879 42.4223 15.4899C42.316 15.493 42.2133 15.529 42.1282 15.5929C42.1282 15.5929 39.8592 17.2822 39.8592 20.1429V20.8982C39.851 20.9511 39.851 21.0049 39.8592 21.0578V22.3463L38.8249 21.7434C38.8219 21.7414 38.8189 21.7394 38.8159 21.7374C38.8073 21.7314 38.7986 21.7257 38.7897 21.7202L37.3405 20.8397C37.155 20.7172 36.9897 20.6858 36.8198 20.668C36.65 20.6503 36.4841 20.6511 36.2901 20.7175C36.2894 20.7175 36.2887 20.7175 36.2881 20.7175C35.9795 20.8242 35.9068 21.0095 35.8359 21.1628C35.7678 21.3102 35.7251 21.4554 35.7422 21.6637C35.7488 23.2333 36.3039 24.7952 37.5238 25.9471L34.1208 26.2571L35.145 24.5445C35.2131 24.4306 35.2348 24.2949 35.2057 24.1654C35.1767 24.0359 35.099 23.9225 34.9889 23.8488C34.9889 23.8488 33.8472 23.1263 32.2164 22.8542C32.689 22.4649 33.3981 21.9953 34.3545 21.6657C34.4306 21.6395 34.4996 21.5957 34.5559 21.538C34.6122 21.4802 34.6542 21.4101 34.6786 21.3331C34.7029 21.2562 34.709 21.1746 34.6963 21.0948C34.6835 21.0151 34.6523 20.9395 34.6052 20.874C34.6052 20.874 32.5353 18.0896 29.4791 16.9046C30.8715 15.7373 32.6224 14.9729 34.7029 14.9729C35.6929 14.9729 36.5664 14.9858 37.5852 15.4445C37.6759 15.4853 37.7765 15.4989 37.8747 15.4838C37.973 15.4686 38.0648 15.4253 38.1391 15.359C38.2133 15.2928 38.2669 15.2064 38.2934 15.1103C38.3198 15.0142 38.318 14.9125 38.2882 14.8174C37.2194 11.414 35.1875 8.91938 32.5608 6.82507C33.1622 6.54465 34.1554 6.18386 35.992 6.18386C40.0918 6.18386 42.5331 9.58679 42.5331 9.58679C42.5965 9.67608 42.6867 9.74282 42.7905 9.77737C42.8943 9.81192 43.0063 9.81249 43.1105 9.779C43.2146 9.7455 43.3054 9.67968 43.3698 9.59104C43.4342 9.5024 43.4688 9.39554 43.4687 9.28588C43.4687 6.49083 43.0781 4.75575 42.7617 3.63924ZM49.6311 4.20976C49.5327 4.21063 49.4366 4.23971 49.3541 4.29357L48.481 4.84592C48.4237 4.88219 48.3741 4.92941 48.3351 4.98489C48.296 5.04037 48.2682 5.10302 48.2533 5.16926C48.2384 5.23551 48.2366 5.30405 48.2481 5.37098C48.2596 5.4379 48.2842 5.5019 48.3203 5.55932C48.3565 5.61674 48.4036 5.66645 48.4589 5.70562C48.5143 5.74479 48.5768 5.77265 48.6428 5.7876C48.7089 5.80256 48.7773 5.80432 48.844 5.79278C48.9107 5.78125 48.9746 5.75665 49.0318 5.72038L49.904 5.16804C50.0002 5.10909 50.0745 5.02013 50.1155 4.9148C50.1565 4.80946 50.162 4.69355 50.131 4.58482C50.1 4.4761 50.0344 4.38054 49.9441 4.3128C49.8538 4.24506 49.7438 4.20887 49.6311 4.20976ZM50.9473 6.81598C50.8835 6.81644 50.8204 6.82876 50.761 6.85233L49.7982 7.22393C49.6706 7.27321 49.5677 7.37132 49.5121 7.49668C49.4566 7.62204 49.453 7.76438 49.5022 7.8924C49.5513 8.02041 49.6492 8.1236 49.7742 8.17928C49.8992 8.23495 50.0412 8.23855 50.1689 8.18927L51.1316 7.81767C51.2454 7.77529 51.3406 7.69405 51.4004 7.58825C51.4603 7.48244 51.4811 7.35885 51.4591 7.23921C51.4371 7.11957 51.3737 7.01155 51.2801 6.93414C51.1865 6.85673 51.0687 6.81489 50.9473 6.81598ZM47.5152 17.1005C47.4041 19.2238 47.1043 20.4964 47.1043 20.4964C47.0702 20.5986 47.0689 20.709 47.1005 20.812C47.1321 20.915 47.195 21.0056 47.2804 21.071C47.3659 21.1364 47.4696 21.1734 47.577 21.1769C47.6845 21.1803 47.7903 21.15 47.8797 21.0901C48.93 20.3881 49.9472 19.4644 50.6875 18.7626V20.6771C49.8191 21.1455 48.4784 21.9931 47.2976 22.8219C47.2401 22.86 47.1909 22.9093 47.1527 22.9668C47.1145 23.0243 47.0882 23.089 47.0754 23.1568C47.0626 23.2247 47.0634 23.2945 47.078 23.3621C47.0925 23.4296 47.1204 23.4936 47.1599 23.5501C47.1995 23.6067 47.25 23.6547 47.3084 23.6914C47.3668 23.7281 47.432 23.7526 47.5 23.7636C47.5681 23.7746 47.6376 23.7718 47.7046 23.7554C47.7715 23.739 47.8345 23.7093 47.8898 23.6681C47.9684 23.6129 48.054 23.5571 48.1345 23.5014C48.1771 23.7236 48.2737 23.9206 48.4091 24.0614C48.5446 24.2021 48.7112 24.2787 48.8828 24.279C49.0879 24.279 49.2847 24.17 49.4297 23.9761C49.5748 23.7822 49.6562 23.5192 49.6562 23.245C49.656 23.0117 49.5967 22.7853 49.4881 22.6027C49.919 22.3271 50.3325 22.0702 50.6875 21.8616V22.211C50.6875 22.3481 50.7419 22.4796 50.8385 22.5765C50.9352 22.6735 51.0664 22.7279 51.2031 22.728C51.5934 22.728 51.9305 22.6993 52.2415 22.6542C52.2404 22.6786 52.2344 22.7041 52.2344 22.728C52.2344 23.283 52.1838 25.2564 51.2726 26.8307C51.2684 26.838 51.2644 26.8454 51.2605 26.8529C51.086 27.1918 50.3411 28.0514 49.338 28.7341C48.3349 29.4168 47.0681 29.966 45.789 29.966C44.5212 29.966 43.2531 29.4172 42.247 28.7341C41.241 28.051 40.4907 27.1893 40.3175 26.8529H40.3164C40.3129 26.8454 40.3092 26.838 40.3054 26.8307C39.5767 25.5717 39.4039 24.0919 39.3617 23.252L40.116 23.6923C40.1944 23.7379 40.2834 23.762 40.374 23.7621C40.4646 23.7622 40.5537 23.7384 40.6322 23.6931C40.7107 23.6477 40.776 23.5824 40.8213 23.5037C40.8666 23.4251 40.8905 23.3358 40.8905 23.245V21.8616C41.2452 22.07 41.6585 22.3264 42.0889 22.6017C41.9805 22.7848 41.9216 23.0115 41.9218 23.245C41.9218 23.5192 42.0032 23.7822 42.1483 23.9761C42.2933 24.17 42.4901 24.279 42.6952 24.279C42.8668 24.2787 43.0334 24.2021 43.1689 24.0614C43.3043 23.9206 43.4009 23.7236 43.4435 23.5014C43.524 23.5571 43.6096 23.6129 43.6882 23.6681C43.7435 23.7093 43.8065 23.739 43.8734 23.7554C43.9404 23.7718 44.0099 23.7746 44.078 23.7636C44.146 23.7526 44.2112 23.7281 44.2696 23.6914C44.328 23.6547 44.3785 23.6067 44.4181 23.5501C44.4576 23.4936 44.4855 23.4296 44.5 23.3621C44.5146 23.2945 44.5154 23.2247 44.5026 23.1568C44.4898 23.089 44.4635 23.0243 44.4253 22.9668C44.3871 22.9093 44.3379 22.86 44.2804 22.8219C43.0996 21.9931 41.7589 21.1455 40.8905 20.6771V20.1429C40.8905 18.8502 41.4177 17.9368 41.9298 17.2964C41.9315 18.2988 41.9893 19.3665 42.4918 20.3742C42.5281 20.4469 42.5809 20.51 42.6461 20.5584C42.7113 20.6068 42.7869 20.6391 42.8669 20.6527C42.9469 20.6663 43.0289 20.6607 43.1063 20.6366C43.1838 20.6124 43.2544 20.5702 43.3126 20.5135C43.3126 20.5135 45.3631 18.62 47.5152 17.1005ZM36.7836 21.7485L38.2227 22.5876C38.273 22.6352 38.3112 22.672 38.3123 22.6684C38.3123 22.676 38.3123 22.6842 38.3123 22.728C38.3123 23.1365 38.3446 24.2928 38.7011 25.5765C38.5913 25.4821 38.4434 25.3955 38.3405 25.3049C37.284 24.3747 36.8097 23.0977 36.7836 21.7485ZM54.7924 21.7555C54.765 23.102 54.2915 24.3766 53.2365 25.3059C53.134 25.3961 52.9864 25.4824 52.8769 25.5765C53.2334 24.2928 53.2657 23.1365 53.2657 22.728C53.2657 22.6842 53.2657 22.676 53.2657 22.6684C53.2668 22.6722 53.3071 22.6324 53.3624 22.5805L54.4782 21.902C54.581 21.8537 54.6848 21.8055 54.7924 21.7555ZM47.0972 26.3409C47.0133 26.3385 46.9302 26.3567 46.8549 26.3938C46.7796 26.4309 46.7145 26.4859 46.6652 26.554C46.6652 26.554 46.6411 26.5964 46.502 26.6822C46.3629 26.7681 46.142 26.864 45.789 26.864C45.436 26.864 45.2151 26.7681 45.076 26.6822C44.9369 26.5964 44.9128 26.554 44.9128 26.554C44.8722 26.4996 44.8213 26.4538 44.7631 26.4191C44.7048 26.3845 44.6403 26.3617 44.5733 26.352C44.5062 26.3424 44.4379 26.3461 44.3723 26.3629C44.3067 26.3797 44.245 26.4093 44.1907 26.45C44.1365 26.4907 44.0908 26.5417 44.0563 26.6001C44.0217 26.6585 43.999 26.7232 43.9893 26.7904C43.9797 26.8577 43.9834 26.9261 44.0001 26.9919C44.0169 27.0578 44.0464 27.1196 44.087 27.174C44.087 27.174 44.2563 27.3901 44.5362 27.5627C44.816 27.7354 45.2396 27.898 45.789 27.898C46.3384 27.898 46.762 27.7354 47.0418 27.5627C47.3217 27.3901 47.491 27.174 47.491 27.174C47.5492 27.0985 47.5854 27.0083 47.5957 26.9134C47.6059 26.8185 47.5897 26.7226 47.549 26.6363C47.5082 26.5501 47.4444 26.4768 47.3647 26.4247C47.2849 26.3725 47.1924 26.3435 47.0972 26.3409Z" fill="#D90416"/>
<path d="M75.88 21V15.776H71.72V21H70.336V9.984H71.72V14.64H75.88V9.984H77.264V21H75.88ZM85.5298 18.192H81.1698L80.2898 21H78.9218L82.5058 9.984H84.2818L87.8658 21H86.4098L85.5298 18.192ZM81.5298 17.04H85.1698L83.3618 11.152L81.5298 17.04ZM94.5075 21L90.6275 11.312C90.6328 11.4347 90.6435 11.64 90.6595 11.928C90.6808 12.2107 90.7022 12.5493 90.7235 12.944C90.7502 13.3333 90.7715 13.7467 90.7875 14.184C90.8035 14.6213 90.8115 15.0533 90.8115 15.48V21H89.5235V9.984H91.4035L95.3475 19.712C95.3422 19.5573 95.3235 19.2747 95.2915 18.864C95.2595 18.448 95.2302 17.9467 95.2035 17.36C95.1768 16.7733 95.1635 16.152 95.1635 15.496V9.984H96.4515V21H94.5075ZM104.717 18.192H100.357L99.4773 21H98.1093L101.693 9.984H103.469L107.053 21H105.597L104.717 18.192ZM100.717 17.04H104.357L102.549 11.152L100.717 17.04ZM113.695 21L109.815 11.312C109.82 11.4347 109.831 11.64 109.847 11.928C109.868 12.2107 109.89 12.5493 109.911 12.944C109.938 13.3333 109.959 13.7467 109.975 14.184C109.991 14.6213 109.999 15.0533 109.999 15.48V21H108.711V9.984H110.591L114.535 19.712C114.53 19.5573 114.511 19.2747 114.479 18.864C114.447 18.448 114.418 17.9467 114.391 17.36C114.364 16.7733 114.351 16.152 114.351 15.496V9.984H115.639V21H113.695Z" fill="#F2F2F2"/>
</g>
<defs>
<filter id="filter0_d_3_456" x="0" y="0" width="121" height="39" filterUnits="userSpaceOnUse" color-interpolation-filters="sRGB">
<feFlood flood-opacity="0" result="BackgroundImageFix"/>
<feColorMatrix in="SourceAlpha" type="matrix" values="0 0 0 0 0 0 0 0 0 0 0 0 0 0 0 0 0 0 127 0" result="hardAlpha"/>
<feOffset dy="4"/>
<feGaussianBlur stdDeviation="2"/>
<feComposite in2="hardAlpha" operator="out"/>
<feColorMatrix type="matrix" values="0 0 0 0 0 0 0 0 0 0 0 0 0 0 0 0 0 0 0.25 0"/>
<feBlend mode="normal" in2="BackgroundImageFix" result="effect1_dropShadow_3_456"/>
<feBlend mode="normal" in="SourceGraphic" in2="effect1_dropShadow_3_456" result="shape"/>
</filter>
</defs>
</svg>
