<svg width="175" height="56" viewBox="0 0 175 56" fill="none" xmlns="http://www.w3.org/2000/svg">
<g filter="url(#filter0_d_3_456)">
<path d="M45.6248 12.5C45.5411 12.5009 45.4588 12.5222 45.3851 12.5622C45.3114 12.6021 45.2485 12.6595 45.2019 12.7292L44.6167 13.5805C44.5764 13.6363 44.5476 13.6996 44.5321 13.7668C44.5165 13.8339 44.5145 13.9035 44.5262 13.9714C44.5378 14.0393 44.5629 14.1042 44.5999 14.1623C44.6369 14.2204 44.6851 14.2704 44.7417 14.3095C44.7983 14.3486 44.8622 14.376 44.9295 14.39C44.9968 14.4041 45.0662 14.4044 45.1336 14.3912C45.2011 14.3779 45.2652 14.3513 45.3222 14.3128C45.3793 14.2743 45.4281 14.2248 45.4657 14.1672L46.0508 13.3159C46.1058 13.2382 46.1382 13.1467 46.1446 13.0517C46.1509 12.9566 46.131 12.8616 46.0869 12.7772C46.0428 12.6928 45.9764 12.6223 45.8948 12.5734C45.8133 12.5244 45.7199 12.4991 45.6248 12.5ZM47.8475 14.4014C47.7134 14.402 47.5848 14.4548 47.489 14.5489L46.7407 15.2607C46.6415 15.3551 46.5837 15.4852 46.5801 15.6223C46.5765 15.7594 46.6274 15.8923 46.7216 15.9918C46.8157 16.0913 46.9454 16.1492 47.0822 16.1528C47.2189 16.1564 47.3515 16.1054 47.4507 16.011L48.199 15.2991C48.2756 15.2285 48.3291 15.1363 48.3525 15.0347C48.3758 14.933 48.368 14.8266 48.33 14.7295C48.292 14.6324 48.2255 14.5491 48.1394 14.4906C48.0533 14.432 47.9515 14.4009 47.8475 14.4014ZM41.9338 14.5478C41.8486 14.5459 41.7642 14.5652 41.6883 14.604C41.6123 14.6428 41.5471 14.6998 41.4985 14.77C41.4499 14.8403 41.4195 14.9215 41.4098 15.0064C41.4002 15.0913 41.4117 15.1773 41.4434 15.2567C41.4434 15.2567 42.1688 17.2312 42.3598 20.4146C41.2007 19.2784 39.0745 17.6499 35.992 17.6499C33.031 17.6499 31.3231 18.7707 31.3231 18.7707C31.2543 18.8167 31.1976 18.8786 31.1577 18.9512C31.1178 19.0238 31.0959 19.1049 31.0939 19.1878C31.0918 19.2706 31.1096 19.3528 31.1458 19.4273C31.182 19.5018 31.2356 19.5665 31.3019 19.6159C33.8711 21.5238 35.7687 23.7423 36.9205 26.6964C36.1375 26.5148 35.389 26.4389 34.7029 26.4389C32.0432 26.4389 29.7866 27.5357 28.1507 29.1754C28.0864 29.24 28.0403 29.3205 28.0171 29.4087C27.9938 29.497 27.9943 29.5898 28.0185 29.6778C28.0426 29.7658 28.0896 29.8459 28.1545 29.9098C28.2195 29.9737 28.3002 30.0192 28.3884 30.0418C30.9994 30.7088 32.7914 32.8344 33.3312 33.5063C31.614 34.2998 30.6836 35.4319 30.6836 35.4319C30.6255 35.5086 30.5898 35.5999 30.5807 35.6958C30.5716 35.7916 30.5893 35.8881 30.6319 35.9743C30.6745 36.0606 30.7403 36.1332 30.8219 36.1841C30.9034 36.2349 30.9975 36.2618 31.0935 36.262C32.5465 36.262 33.5062 36.731 33.9758 36.99L32.7139 39.0984C32.665 39.1802 32.6397 39.274 32.6407 39.3694C32.6417 39.4647 32.669 39.558 32.7195 39.6388C32.7701 39.7196 32.8419 39.7847 32.9272 39.8271C33.0124 39.8695 33.1076 39.8875 33.2023 39.879L38.6235 39.3852C38.8856 39.5859 39.1714 39.7814 39.4806 39.9628C39.8565 40.6039 40.6197 41.3779 41.669 42.0904C42.7925 42.8532 44.2311 43.5 45.789 43.5C47.3562 43.5 48.7957 42.8536 49.9171 42.0904C50.9645 41.3775 51.7241 40.6021 52.0984 39.9628C52.6939 39.6133 53.1802 39.2145 53.6041 38.847H57.9064C57.9997 38.847 58.0912 38.8215 58.1713 38.7735C58.2513 38.7254 58.3169 38.6564 58.3609 38.5739C58.4049 38.4914 58.4258 38.3985 58.4213 38.305C58.4168 38.2115 58.3871 38.1211 58.3354 38.0432L57.5901 36.9223L60.2549 35.1411C60.3255 35.0939 60.3834 35.0299 60.4235 34.9549C60.4635 34.8798 60.4845 34.7961 60.4845 34.711C60.4845 34.6258 60.4635 34.5421 60.4235 34.467C60.3834 34.392 60.3255 34.328 60.2549 34.2808L57.7926 32.6349C59.9334 31.1926 60.9135 29.8277 60.9135 29.8277C60.9585 29.76 60.9869 29.6826 60.9964 29.6019C61.006 29.5211 60.9963 29.4392 60.9684 29.3629C60.9404 29.2865 60.8949 29.2179 60.8355 29.1625C60.7761 29.1071 60.7045 29.0665 60.6265 29.0441C60.6265 29.0441 58.3312 28.4843 56.0402 28.209C56.9478 27.7829 57.8983 27.3816 58.6969 26.8761C58.7914 26.8163 58.8639 26.7274 58.9036 26.6226C58.9433 26.5179 58.948 26.4031 58.917 26.2955C58.886 26.1878 58.821 26.0932 58.7317 26.0258C58.6424 25.9585 58.5337 25.922 58.422 25.9219H54.8539C54.9438 25.8283 54.9499 25.7711 55.0563 25.6806C55.475 25.3244 56.0045 25.006 56.4974 24.8687C56.6172 24.835 56.7208 24.7589 56.7891 24.6546C56.8573 24.5503 56.8857 24.4247 56.8689 24.3011C56.8521 24.1775 56.7912 24.0641 56.6976 23.9819C56.604 23.8997 56.4839 23.8543 56.3595 23.8539C55.0276 23.8539 54.1268 24.0198 53.4318 24.3356C53.0045 24.5297 52.6812 24.7832 52.3865 25.0525C52.3636 25.0133 52.3635 24.9922 52.3381 24.9505C52.1284 24.6052 51.8374 24.2038 51.4589 23.8155C50.788 23.1272 49.7778 22.5492 48.5494 22.4089C48.51 22.2483 48.4576 22.0494 48.3742 21.7909C48.1902 21.2209 47.8878 20.439 47.4155 19.5785C46.4708 17.8576 44.837 15.8132 42.1332 14.5933C42.0705 14.5649 42.0027 14.5495 41.9338 14.5478ZM42.7617 16.1392C44.5751 17.2477 45.7791 18.7438 46.5111 20.0773C46.9458 20.8693 47.2264 21.5929 47.3933 22.11C47.4768 22.3686 47.5322 22.5755 47.5645 22.7118C47.5805 22.7791 47.591 22.8293 47.5957 22.8552V22.8572C47.6048 22.986 47.6616 23.1066 47.7548 23.1955C47.7548 23.1955 47.9977 23.2595 48.1265 23.2935L48.1093 23.3369C49.2266 23.3369 50.0929 23.8933 50.7217 24.5385C51.0362 24.8611 51.2849 25.2029 51.4579 25.4877C51.6309 25.7725 51.7311 26.0359 51.7339 26.0471C51.7564 26.1374 51.8029 26.22 51.8684 26.286C51.9338 26.3521 52.0159 26.3992 52.1058 26.4223C52.1958 26.4455 52.2903 26.4439 52.3794 26.4176C52.4685 26.3914 52.5489 26.3415 52.6121 26.2733C53.0244 25.8282 53.3448 25.5107 53.8578 25.2777C53.9338 25.2432 54.0599 25.2248 54.1469 25.1939C53.7959 25.5364 53.4496 25.8792 53.3029 26.2471C53.2717 26.3255 53.2601 26.4103 53.2691 26.4943C53.2781 26.5782 53.3075 26.6587 53.3547 26.7286C53.4019 26.7985 53.4655 26.8558 53.5398 26.8954C53.6142 26.9351 53.6971 26.9558 53.7813 26.9559H56.2416C55.5366 27.3097 54.9119 27.6895 54.0985 28.0293C53.9883 28.0752 53.8974 28.1579 53.8412 28.2635C53.785 28.3691 53.7671 28.4909 53.7905 28.6083C53.8139 28.7256 53.8772 28.8312 53.9695 28.907C54.0619 28.9828 54.1776 29.0241 54.2969 29.0239C56.2753 29.0239 58.5755 29.5934 59.5439 29.8459C59.0851 30.3803 58.2963 31.1853 56.6102 32.1997C56.5357 32.2445 56.4736 32.3075 56.4298 32.3828C56.3861 32.4582 56.362 32.5434 56.3599 32.6305C56.3578 32.7177 56.3777 32.804 56.4178 32.8814C56.4578 32.9587 56.5168 33.0247 56.5891 33.0731L59.0393 34.711L56.5891 36.3488C56.4753 36.4249 56.3963 36.5431 56.3695 36.6776C56.3427 36.812 56.3702 36.9516 56.4461 37.0657L56.9426 37.813H54.6273C55.4458 36.7525 55.8291 35.4623 55.8348 34.1657C55.8525 33.9573 55.8103 33.8113 55.7421 33.6638C55.6711 33.5101 55.5962 33.3236 55.2879 33.2175C55.0939 33.1511 54.928 33.1503 54.7582 33.168C54.5883 33.1858 54.422 33.2183 54.2365 33.3407L54.2526 33.3296L54.0572 33.4487C53.2459 33.8098 52.6426 34.0395 51.7188 34.1162V33.5548C51.726 33.5052 51.726 33.4549 51.7188 33.4053V30.0579C51.7187 29.9557 51.6885 29.8558 51.6318 29.7708C51.5751 29.6858 51.4946 29.6195 51.4004 29.5804C51.3062 29.5413 51.2026 29.5311 51.1026 29.551C51.0026 29.5709 50.9107 29.6201 50.8386 29.6924C50.8386 29.6924 49.603 30.8549 48.3722 31.8624C48.4982 31.058 48.625 29.9823 48.625 28.5069C48.6249 28.4147 48.6002 28.3242 48.5535 28.2448C48.5068 28.1653 48.4397 28.0999 48.3593 28.0552C48.2789 28.0105 48.188 27.9882 48.096 27.9905C48.0041 27.9929 47.9145 28.0199 47.8364 28.0687C45.7366 29.3845 43.9954 30.9777 43.2441 31.6826C42.9795 30.6904 42.953 29.561 42.953 28.5069C42.953 28.4377 42.9392 28.3692 42.9124 28.3055C42.8855 28.2418 42.8462 28.1841 42.7967 28.1359C42.7472 28.0877 42.6886 28.0499 42.6242 28.0249C42.5599 27.9998 42.4913 27.9879 42.4223 27.9899C42.316 27.993 42.2133 28.029 42.1282 28.0929C42.1282 28.0929 39.8592 29.7822 39.8592 32.6429V33.3982C39.851 33.4511 39.851 33.5049 39.8592 33.5578V34.8463L38.8249 34.2434C38.8219 34.2414 38.8189 34.2394 38.8159 34.2374C38.8073 34.2314 38.7986 34.2257 38.7897 34.2202L37.3405 33.3397C37.155 33.2172 36.9897 33.1858 36.8198 33.168C36.65 33.1503 36.4841 33.1511 36.2901 33.2175C36.2894 33.2175 36.2887 33.2175 36.2881 33.2175C35.9795 33.3242 35.9068 33.5095 35.8359 33.6628C35.7678 33.8102 35.7251 33.9554 35.7422 34.1637C35.7488 35.7333 36.3039 37.2952 37.5238 38.4471L34.1208 38.7571L35.145 37.0445C35.2131 36.9306 35.2348 36.7949 35.2057 36.6654C35.1767 36.5359 35.099 36.4225 34.9889 36.3488C34.9889 36.3488 33.8472 35.6263 32.2164 35.3542C32.689 34.9649 33.3981 34.4953 34.3545 34.1657C34.4306 34.1395 34.4996 34.0957 34.5559 34.038C34.6122 33.9802 34.6542 33.9101 34.6786 33.8331C34.7029 33.7562 34.709 33.6746 34.6963 33.5948C34.6835 33.5151 34.6523 33.4395 34.6052 33.374C34.6052 33.374 32.5353 30.5896 29.4791 29.4046C30.8715 28.2373 32.6224 27.4729 34.7029 27.4729C35.6929 27.4729 36.5664 27.4858 37.5852 27.9445C37.6759 27.9853 37.7765 27.9989 37.8747 27.9838C37.973 27.9686 38.0648 27.9253 38.1391 27.859C38.2133 27.7928 38.2669 27.7064 38.2934 27.6103C38.3198 27.5142 38.318 27.4125 38.2882 27.3174C37.2194 23.914 35.1875 21.4194 32.5608 19.3251C33.1622 19.0446 34.1554 18.6839 35.992 18.6839C40.0918 18.6839 42.5331 22.0868 42.5331 22.0868C42.5965 22.1761 42.6867 22.2428 42.7905 22.2774C42.8943 22.3119 43.0063 22.3125 43.1105 22.279C43.2146 22.2455 43.3054 22.1797 43.3698 22.091C43.4342 22.0024 43.4688 21.8955 43.4687 21.7859C43.4687 18.9908 43.0781 17.2557 42.7617 16.1392ZM49.6311 16.7098C49.5327 16.7106 49.4366 16.7397 49.3541 16.7936L48.481 17.3459C48.4237 17.3822 48.3741 17.4294 48.3351 17.4849C48.296 17.5404 48.2682 17.603 48.2533 17.6693C48.2384 17.7355 48.2366 17.8041 48.2481 17.871C48.2596 17.9379 48.2842 18.0019 48.3203 18.0593C48.3565 18.1167 48.4036 18.1665 48.4589 18.2056C48.5143 18.2448 48.5768 18.2726 48.6428 18.2876C48.7089 18.3026 48.7773 18.3043 48.844 18.2928C48.9107 18.2813 48.9746 18.2566 49.0318 18.2204L49.904 17.668C50.0002 17.6091 50.0745 17.5201 50.1155 17.4148C50.1565 17.3095 50.162 17.1936 50.131 17.0848C50.1 16.9761 50.0344 16.8805 49.9441 16.8128C49.8538 16.7451 49.7438 16.7089 49.6311 16.7098ZM50.9473 19.316C50.8835 19.3164 50.8204 19.3288 50.761 19.3523L49.7982 19.7239C49.6706 19.7732 49.5677 19.8713 49.5121 19.9967C49.4566 20.122 49.453 20.2644 49.5022 20.3924C49.5513 20.5204 49.6492 20.6236 49.7742 20.6793C49.8992 20.735 50.0412 20.7385 50.1689 20.6893L51.1316 20.3177C51.2454 20.2753 51.3406 20.194 51.4004 20.0882C51.4603 19.9824 51.4811 19.8589 51.4591 19.7392C51.4371 19.6196 51.3737 19.5115 51.2801 19.4341C51.1865 19.3567 51.0687 19.3149 50.9473 19.316ZM47.5152 29.6005C47.4041 31.7238 47.1043 32.9964 47.1043 32.9964C47.0702 33.0986 47.0689 33.209 47.1005 33.312C47.1321 33.415 47.195 33.5056 47.2804 33.571C47.3659 33.6364 47.4696 33.6734 47.577 33.6769C47.6845 33.6803 47.7903 33.65 47.8797 33.5901C48.93 32.8881 49.9472 31.9644 50.6875 31.2626V33.1771C49.8191 33.6455 48.4784 34.4931 47.2976 35.3219C47.2401 35.36 47.1909 35.4093 47.1527 35.4668C47.1145 35.5243 47.0882 35.589 47.0754 35.6568C47.0626 35.7247 47.0634 35.7945 47.078 35.8621C47.0925 35.9296 47.1204 35.9936 47.1599 36.0501C47.1995 36.1067 47.25 36.1547 47.3084 36.1914C47.3668 36.2281 47.432 36.2526 47.5 36.2636C47.5681 36.2746 47.6376 36.2718 47.7046 36.2554C47.7715 36.239 47.8345 36.2093 47.8898 36.1681C47.9684 36.1129 48.054 36.0571 48.1345 36.0014C48.1771 36.2236 48.2737 36.4206 48.4091 36.5614C48.5446 36.7021 48.7112 36.7787 48.8828 36.779C49.0879 36.779 49.2847 36.67 49.4297 36.4761C49.5748 36.2822 49.6562 36.0192 49.6562 35.745C49.656 35.5116 49.5967 35.2853 49.4881 35.1027C49.919 34.8271 50.3325 34.5702 50.6875 34.3616V34.711C50.6875 34.8481 50.7419 34.9796 50.8385 35.0765C50.9352 35.1735 51.0664 35.2279 51.2031 35.228C51.5934 35.228 51.9305 35.1993 52.2415 35.1542C52.2404 35.1786 52.2344 35.2041 52.2344 35.228C52.2344 35.783 52.1838 37.7564 51.2726 39.3307C51.2684 39.338 51.2644 39.3454 51.2605 39.3529C51.086 39.6918 50.3411 40.5514 49.338 41.2341C48.3349 41.9168 47.0681 42.466 45.789 42.466C44.5212 42.466 43.2531 41.9172 42.247 41.2341C41.241 40.551 40.4907 39.6893 40.3175 39.3529H40.3164C40.3129 39.3454 40.3092 39.338 40.3054 39.3307C39.5767 38.0717 39.4039 36.5919 39.3617 35.752L40.116 36.1923C40.1944 36.2379 40.2834 36.262 40.374 36.2621C40.4646 36.2622 40.5537 36.2384 40.6322 36.1931C40.7107 36.1477 40.776 36.0824 40.8213 36.0037C40.8666 35.9251 40.8905 35.8358 40.8905 35.745V34.3616C41.2452 34.57 41.6585 34.8264 42.0889 35.1017C41.9805 35.2848 41.9216 35.5115 41.9218 35.745C41.9218 36.0192 42.0032 36.2822 42.1483 36.4761C42.2933 36.67 42.4901 36.779 42.6952 36.779C42.8668 36.7787 43.0334 36.7021 43.1689 36.5614C43.3043 36.4206 43.4009 36.2236 43.4435 36.0014C43.524 36.0571 43.6096 36.1129 43.6882 36.1681C43.7435 36.2093 43.8065 36.239 43.8734 36.2554C43.9404 36.2718 44.0099 36.2746 44.078 36.2636C44.146 36.2526 44.2112 36.2281 44.2696 36.1914C44.328 36.1547 44.3785 36.1067 44.4181 36.0501C44.4576 35.9936 44.4855 35.9296 44.5 35.8621C44.5146 35.7945 44.5154 35.7247 44.5026 35.6568C44.4898 35.589 44.4635 35.5243 44.4253 35.4668C44.3871 35.4093 44.3379 35.36 44.2804 35.3219C43.0996 34.4931 41.7589 33.6455 40.8905 33.1771V32.6429C40.8905 31.3502 41.4177 30.4368 41.9298 29.7964C41.9315 30.7988 41.9893 31.8665 42.4918 32.8742C42.5281 32.9469 42.5809 33.01 42.6461 33.0584C42.7113 33.1068 42.7869 33.1391 42.8669 33.1527C42.9469 33.1663 43.0289 33.1607 43.1063 33.1366C43.1838 33.1124 43.2544 33.0702 43.3126 33.0135C43.3126 33.0135 45.3631 31.12 47.5152 29.6005ZM36.7836 34.2485L38.2227 35.0876C38.273 35.1352 38.3112 35.172 38.3123 35.1684C38.3123 35.176 38.3123 35.1842 38.3123 35.228C38.3123 35.6365 38.3446 36.7928 38.7011 38.0765C38.5913 37.9821 38.4434 37.8955 38.3405 37.8049C37.284 36.8747 36.8097 35.5977 36.7836 34.2485ZM54.7924 34.2555C54.765 35.602 54.2915 36.8766 53.2365 37.8059C53.134 37.8961 52.9864 37.9824 52.8769 38.0765C53.2334 36.7928 53.2657 35.6365 53.2657 35.228C53.2657 35.1842 53.2657 35.176 53.2657 35.1684C53.2668 35.1722 53.3071 35.1324 53.3624 35.0805L54.4782 34.402C54.581 34.3537 54.6848 34.3055 54.7924 34.2555ZM47.0972 38.8409C47.0133 38.8385 46.9302 38.8567 46.8549 38.8938C46.7796 38.9309 46.7145 38.9859 46.6652 39.054C46.6652 39.054 46.6411 39.0964 46.502 39.1822C46.3629 39.2681 46.142 39.364 45.789 39.364C45.436 39.364 45.2151 39.2681 45.076 39.1822C44.9369 39.0964 44.9128 39.054 44.9128 39.054C44.8722 38.9996 44.8213 38.9538 44.7631 38.9191C44.7048 38.8845 44.6403 38.8617 44.5733 38.852C44.5062 38.8424 44.4379 38.846 44.3723 38.8629C44.3067 38.8797 44.245 38.9093 44.1907 38.95C44.1365 38.9907 44.0908 39.0417 44.0563 39.1001C44.0217 39.1585 43.999 39.2232 43.9893 39.2904C43.9797 39.3577 43.9834 39.4261 44.0001 39.4919C44.0169 39.5578 44.0464 39.6196 44.087 39.674C44.087 39.674 44.2563 39.8901 44.5362 40.0627C44.816 40.2354 45.2396 40.398 45.789 40.398C46.3384 40.398 46.762 40.2354 47.0418 40.0627C47.3217 39.8901 47.491 39.674 47.491 39.674C47.5492 39.5985 47.5854 39.5083 47.5957 39.4134C47.6059 39.3185 47.5897 39.2226 47.549 39.1363C47.5082 39.0501 47.4444 38.9768 47.3647 38.9247C47.2849 38.8725 47.1924 38.8436 47.0972 38.8409Z" fill="#D90416"/>
<path d="M78.89 36V28.4905H72.91V36H70.9205V20.1645H72.91V26.8575H78.89V20.1645H80.8795V36H78.89ZM92.7615 31.9635H86.494L85.229 36H83.2625L88.4145 20.1645H90.9675L96.1195 36H94.0265L92.7615 31.9635ZM87.0115 30.3075H92.244L89.645 21.8435L87.0115 30.3075ZM105.667 36L100.09 22.0735C100.097 22.2498 100.113 22.545 100.136 22.959C100.166 23.3653 100.197 23.8522 100.228 24.4195C100.266 24.9792 100.297 25.5733 100.32 26.202C100.343 26.8307 100.354 27.4517 100.354 28.065V36H98.5025V20.1645H101.205L106.875 34.1485C106.867 33.9262 106.84 33.5198 106.794 32.9295C106.748 32.3315 106.706 31.6108 106.668 30.7675C106.629 29.9242 106.61 29.031 106.61 28.088V20.1645H108.462V36H105.667ZM120.344 31.9635H114.076L112.811 36H110.845L115.997 20.1645H118.55L123.702 36H121.609L120.344 31.9635ZM114.594 30.3075H119.826L117.227 21.8435L114.594 30.3075ZM133.249 36L127.672 22.0735C127.679 22.2498 127.695 22.545 127.718 22.959C127.748 23.3653 127.779 23.8522 127.81 24.4195C127.848 24.9792 127.879 25.5733 127.902 26.202C127.925 26.8307 127.936 27.4517 127.936 28.065V36H126.085V20.1645H128.787L134.457 34.1485C134.449 33.9262 134.422 33.5198 134.376 32.9295C134.33 32.3315 134.288 31.6108 134.25 30.7675C134.211 29.9242 134.192 29.031 134.192 28.088V20.1645H136.044V36H133.249Z" fill="#F2F2F2"/>
</g>
<defs>
<filter id="filter0_d_3_456" x="0" y="0" width="179" height="64" filterUnits="userSpaceOnUse" color-interpolation-filters="sRGB">
<feFlood flood-opacity="0" result="BackgroundImageFix"/>
<feColorMatrix in="SourceAlpha" type="matrix" values="0 0 0 0 0 0 0 0 0 0 0 0 0 0 0 0 0 0 127 0" result="hardAlpha"/>
<feOffset dy="4"/>
<feGaussianBlur stdDeviation="2"/>
<feComposite in2="hardAlpha" operator="out"/>
<feColorMatrix type="matrix" values="0 0 0 0 0 0 0 0 0 0 0 0 0 0 0 0 0 0 0.25 0"/>
<feBlend mode="normal" in2="BackgroundImageFix" result="effect1_dropShadow_3_456"/>
<feBlend mode="normal" in="SourceGraphic" in2="effect1_dropShadow_3_456" result="shape"/>
</filter>
</defs>
</svg>
