<svg width="216" height="177" viewBox="0 0 216 177" fill="none" xmlns="http://www.w3.org/2000/svg">
<path d="M115.363 0.000149565C114.814 0.00519969 114.276 0.127012 113.793 0.355048C113.311 0.583085 112.899 0.910479 112.594 1.30891L108.764 6.1692C108.5 6.48789 108.312 6.84951 108.21 7.23281C108.108 7.61611 108.095 8.01335 108.171 8.40117C108.247 8.78899 108.412 9.15956 108.654 9.49111C108.896 9.82266 109.212 10.1085 109.582 10.3318C109.953 10.5551 110.371 10.7114 110.811 10.7915C111.252 10.8715 111.706 10.8738 112.147 10.798C112.589 10.7223 113.009 10.5701 113.382 10.3505C113.755 10.1308 114.075 9.84809 114.321 9.51894L118.151 4.65865C118.51 4.21476 118.723 3.69263 118.764 3.14989C118.806 2.60715 118.675 2.06489 118.387 1.58297C118.099 1.10105 117.663 0.698209 117.13 0.418899C116.596 0.139589 115.985 -0.00532503 115.363 0.000149565ZM129.911 10.8565C129.033 10.8596 128.192 11.1615 127.564 11.6983L122.666 15.7629C122.017 16.3019 121.639 17.0445 121.615 17.8274C121.592 18.6102 121.925 19.3691 122.541 19.9371C123.157 20.5052 124.006 20.8359 124.902 20.8564C125.797 20.877 126.664 20.5857 127.314 20.0467L132.212 15.982C132.713 15.5789 133.063 15.0525 133.216 14.4721C133.369 13.8917 133.318 13.2844 133.069 12.7299C132.82 12.1754 132.385 11.6998 131.822 11.3654C131.258 11.0311 130.592 10.8537 129.911 10.8565ZM91.2033 11.6925C90.6455 11.6815 90.0933 11.7917 89.596 12.0131C89.0987 12.2345 88.672 12.5602 88.3539 12.9612C88.0359 13.3622 87.8365 13.8259 87.7735 14.3108C87.7105 14.7957 87.786 15.2867 87.9931 15.7399C87.9931 15.7399 92.7413 27.0139 93.9917 45.1899C86.4046 38.7027 72.4878 29.404 52.3112 29.404C32.9302 29.404 21.7512 35.8037 21.7512 35.8037C21.3012 36.0664 20.93 36.4199 20.6688 36.8343C20.4077 37.2488 20.2643 37.7121 20.2507 38.1851C20.2372 38.6582 20.3538 39.1272 20.5908 39.5526C20.8279 39.978 21.1784 40.3473 21.6127 40.6294C38.4289 51.5231 50.8497 64.19 58.3889 81.0569C53.2635 80.0198 48.3645 79.5867 43.8736 79.5867C26.4648 79.5867 11.6944 85.8489 0.986722 95.2111C0.565739 95.5799 0.263873 96.0396 0.111795 96.5434C-0.0402827 97.0473 -0.0371519 97.5774 0.120869 98.0799C0.27889 98.5824 0.58617 99.0393 1.01149 99.4043C1.4368 99.7692 1.965 100.029 2.54241 100.158C19.6326 103.966 31.3622 116.103 34.8954 119.939C23.6551 124.47 17.5653 130.934 17.5653 130.934C17.1849 131.371 16.9517 131.893 16.892 132.44C16.8323 132.987 16.9484 133.538 17.2272 134.031C17.506 134.523 17.9366 134.938 18.4703 135.228C19.0041 135.518 19.6198 135.673 20.2482 135.673C29.7589 135.673 36.0404 138.351 39.1142 139.83L30.8546 151.868C30.5348 152.336 30.369 152.871 30.3756 153.416C30.3821 153.96 30.5607 154.492 30.8916 154.954C31.2225 155.415 31.6928 155.787 32.2505 156.029C32.8082 156.271 33.4315 156.374 34.0517 156.325L69.5358 153.506C71.2513 154.652 73.1219 155.768 75.1455 156.804C77.6062 160.464 82.6014 164.883 89.4697 168.951C96.8235 173.307 106.24 177 116.437 177C126.695 177 136.118 173.309 143.457 168.951C150.313 164.881 155.285 160.454 157.735 156.804C161.633 154.808 164.816 152.531 167.59 150.433H195.751C196.362 150.433 196.961 150.288 197.485 150.013C198.009 149.738 198.438 149.345 198.726 148.874C199.014 148.402 199.151 147.872 199.121 147.338C199.092 146.805 198.898 146.288 198.559 145.843L193.681 139.444L211.123 129.273C211.585 129.004 211.964 128.639 212.226 128.21C212.488 127.782 212.626 127.303 212.626 126.817C212.626 126.331 212.488 125.853 212.226 125.425C211.964 124.996 211.585 124.631 211.123 124.361L195.006 114.964C209.019 106.729 215.434 98.9356 215.434 98.9356C215.728 98.549 215.914 98.1073 215.977 97.6461C216.039 97.185 215.976 96.7174 215.793 96.2815C215.61 95.8456 215.312 95.4536 214.923 95.1374C214.534 94.8212 214.066 94.5896 213.555 94.4616C213.555 94.4616 198.532 91.265 183.536 89.6935C189.476 87.2604 195.698 84.9691 200.925 82.0831C201.544 81.7416 202.019 81.2336 202.278 80.6357C202.538 80.0377 202.569 79.3821 202.366 78.7676C202.163 78.1531 201.737 77.6128 201.153 77.2282C200.569 76.8435 199.857 76.6353 199.126 76.6348H175.771C176.36 76.1 176.399 75.7734 177.096 75.2568C179.836 73.2231 183.302 71.4053 186.529 70.6214C187.313 70.4286 187.991 69.9944 188.438 69.3988C188.884 68.8032 189.07 68.0864 188.96 67.3805C188.85 66.6747 188.452 66.0274 187.839 65.5582C187.226 65.0889 186.44 64.8292 185.626 64.8271C176.908 64.8271 171.012 65.7745 166.463 67.5772C163.666 68.6857 161.55 70.1331 159.621 71.6707C159.471 71.447 159.47 71.3264 159.304 71.0884C157.932 69.117 156.026 66.8248 153.549 64.608C149.158 60.6776 142.546 57.3774 134.505 56.5767C134.248 55.6596 133.905 54.5237 133.358 53.0482C132.154 49.7933 130.175 45.329 127.083 40.4161C120.9 30.5902 110.206 18.9174 92.5085 11.952C92.0976 11.7901 91.6538 11.7019 91.2033 11.6925ZM96.6219 20.7789C108.492 27.1078 116.372 35.6504 121.163 43.2642C124.009 47.786 125.845 51.9174 126.938 54.8701C127.484 56.3465 127.847 57.5281 128.059 58.3063C128.163 58.6903 128.232 58.977 128.263 59.125V59.1366C128.322 59.8715 128.694 60.5604 129.304 61.068C129.304 61.068 130.894 61.4331 131.737 61.6272L131.625 61.8752C138.937 61.8752 144.608 65.052 148.724 68.7361C150.782 70.5781 152.411 72.5293 153.543 74.1556C154.675 75.7819 155.331 77.2855 155.349 77.3497C155.497 77.8654 155.801 78.3367 156.229 78.7138C156.658 79.0909 157.195 79.3597 157.784 79.492C158.372 79.6243 158.991 79.6151 159.574 79.4653C160.157 79.3155 160.684 79.0308 161.097 78.6411C163.796 76.0995 165.893 74.2872 169.251 72.9564C169.749 72.7593 170.574 72.6542 171.143 72.4778C168.846 74.4334 166.579 76.3911 165.619 78.4912C165.415 78.9389 165.339 79.4236 165.398 79.9029C165.457 80.3822 165.649 80.8415 165.958 81.2408C166.267 81.6401 166.683 81.9671 167.17 82.1933C167.657 82.4196 168.199 82.5381 168.75 82.5386H184.854C180.24 84.5583 176.151 86.727 170.827 88.6673C170.105 88.9291 169.51 89.4018 169.142 90.0046C168.775 90.6074 168.657 91.3031 168.811 91.973C168.964 92.643 169.378 93.2457 169.982 93.6785C170.587 94.1113 171.344 94.3473 172.125 94.3463C185.074 94.3463 200.13 97.598 206.469 99.0394C203.466 102.091 198.303 106.687 187.267 112.479C186.779 112.735 186.373 113.094 186.086 113.525C185.8 113.955 185.642 114.441 185.628 114.939C185.615 115.437 185.745 115.929 186.007 116.371C186.269 116.813 186.655 117.189 187.129 117.466L203.167 126.817L187.129 136.169C186.384 136.603 185.867 137.279 185.691 138.046C185.516 138.814 185.696 139.611 186.192 140.262L189.442 144.529H174.288C179.645 138.474 182.154 131.108 182.191 123.704C182.307 122.514 182.031 121.681 181.585 120.839C181.12 119.961 180.63 118.896 178.612 118.29C177.342 117.911 176.256 117.906 175.144 118.008C174.033 118.109 172.944 118.295 171.73 118.994L171.835 118.93L170.557 119.611C165.246 121.672 161.297 122.984 155.25 123.422V120.216C155.297 119.933 155.297 119.646 155.25 119.363V100.25C155.25 99.6664 155.052 99.0959 154.681 98.6106C154.31 98.1253 153.783 97.7471 153.166 97.5237C152.55 97.3004 151.871 97.2419 151.217 97.3557C150.562 97.4695 149.961 97.7504 149.489 98.163C149.489 98.163 141.402 104.8 133.345 110.553C134.17 105.96 135 99.8183 135 91.3943C134.999 90.8679 134.838 90.3511 134.532 89.8976C134.226 89.4441 133.787 89.0703 133.261 88.8151C132.734 88.5598 132.139 88.4324 131.538 88.4459C130.936 88.4595 130.349 88.6135 129.838 88.8921C116.094 96.4053 104.697 105.502 99.7794 109.527C98.0479 103.861 97.8743 97.4127 97.8743 91.3943C97.8745 90.9993 97.784 90.6083 97.6082 90.2444C97.4324 89.8805 97.1749 89.5512 96.851 89.2759C96.5271 89.0007 96.1433 88.7851 95.7223 88.6419C95.3014 88.4987 94.8519 88.4309 94.4004 88.4424C93.7048 88.4602 93.0325 88.6656 92.4756 89.0305C92.4756 89.0305 77.624 98.6757 77.624 115.01V119.322C77.5702 119.624 77.5702 119.931 77.624 120.233V127.59L70.8542 124.148C70.8345 124.136 70.8148 124.125 70.7948 124.113C70.7389 124.079 70.6817 124.047 70.6235 124.015L61.1377 118.988C59.9235 118.289 58.8415 118.109 57.7297 118.008C56.618 117.906 55.5323 117.911 54.2624 118.29C54.258 118.29 54.2536 118.29 54.2492 118.29C52.2294 118.899 51.7533 119.957 51.2894 120.833C50.8436 121.674 50.564 122.504 50.6764 123.692C50.7196 132.654 54.3526 141.573 62.3375 148.15L40.0635 149.92L46.7674 140.141C47.2127 139.491 47.355 138.716 47.1648 137.976C46.9746 137.237 46.4665 136.59 45.7457 136.169C45.7457 136.169 38.2725 132.044 27.5982 130.49C30.6918 128.267 35.3328 125.586 41.5928 123.704C42.0913 123.554 42.5429 123.305 42.9113 122.975C43.2797 122.645 43.5547 122.245 43.7142 121.805C43.8738 121.366 43.9135 120.9 43.8301 120.445C43.7467 119.99 43.5426 119.558 43.2342 119.184C43.2342 119.184 29.6855 103.286 9.68143 96.5198C18.7955 89.8548 30.2559 85.4905 43.8736 85.4905C50.3537 85.4905 56.0712 85.5639 62.7396 88.183C63.3333 88.416 63.9914 88.4939 64.6346 88.4073C65.2778 88.3207 65.8786 88.0734 66.3648 87.6951C66.851 87.3167 67.2018 86.8236 67.3749 86.2749C67.548 85.7262 67.5362 85.1455 67.3407 84.6026C60.345 65.1701 47.0453 50.9268 29.8526 38.9689C33.7888 37.3678 40.29 35.3079 52.3112 35.3079C79.1461 35.3079 95.1255 54.7375 95.1255 54.7375C95.5411 55.2473 96.1311 55.6284 96.8105 55.8256C97.4899 56.0229 98.2234 56.0262 98.905 55.8349C99.5866 55.6437 100.181 55.2679 100.603 54.7618C101.024 54.2557 101.25 53.6455 101.249 53.0194C101.249 37.0605 98.6931 27.1538 96.6219 20.7789ZM141.585 24.0364C140.941 24.0414 140.312 24.2074 139.772 24.5149L134.057 27.6686C133.682 27.8757 133.358 28.1453 133.102 28.4621C132.846 28.7789 132.665 29.1366 132.567 29.5148C132.469 29.8931 132.458 30.2844 132.533 30.6666C132.608 31.0487 132.769 31.4141 133.006 31.7419C133.243 32.0698 133.551 32.3536 133.913 32.5772C134.275 32.8009 134.684 32.9599 135.117 33.0453C135.549 33.1307 135.997 33.1408 136.433 33.0749C136.87 33.0091 137.288 32.8686 137.663 32.6615L143.372 29.5078C144.001 29.1712 144.488 28.6633 144.756 28.0619C145.025 27.4605 145.06 26.7987 144.858 26.1779C144.655 25.5571 144.225 25.0115 143.634 24.6247C143.043 24.2379 142.323 24.0313 141.585 24.0364ZM150.201 38.9171C149.783 38.9197 149.37 38.99 148.981 39.1246L142.679 41.2463C141.844 41.5277 141.17 42.0878 140.807 42.8036C140.443 43.5194 140.42 44.3321 140.741 45.063C141.063 45.794 141.704 46.3832 142.522 46.701C143.34 47.0189 144.27 47.0394 145.105 46.7581L151.407 44.6364C152.152 44.3944 152.775 43.9305 153.167 43.3264C153.559 42.7223 153.695 42.0167 153.55 41.3336C153.406 40.6505 152.992 40.0337 152.379 39.5917C151.766 39.1497 150.995 38.9108 150.201 38.9171ZM127.736 97.6383C127.009 109.762 125.046 117.028 125.046 117.028C124.823 117.611 124.815 118.241 125.021 118.83C125.228 119.418 125.64 119.935 126.199 120.309C126.759 120.682 127.437 120.893 128.141 120.913C128.844 120.933 129.537 120.759 130.122 120.418C136.996 116.409 143.655 111.136 148.5 107.128V118.06C142.816 120.734 134.041 125.574 126.312 130.305C125.935 130.523 125.613 130.804 125.363 131.133C125.113 131.462 124.941 131.83 124.857 132.218C124.773 132.606 124.779 133.004 124.874 133.39C124.969 133.776 125.151 134.141 125.41 134.464C125.67 134.787 126 135.061 126.382 135.27C126.765 135.48 127.191 135.62 127.637 135.683C128.082 135.745 128.537 135.729 128.975 135.636C129.414 135.542 129.826 135.372 130.188 135.137C130.702 134.822 131.262 134.503 131.79 134.186C132.068 135.454 132.701 136.579 133.587 137.383C134.474 138.186 135.564 138.623 136.687 138.625C138.03 138.625 139.318 138.003 140.267 136.896C141.217 135.789 141.75 134.287 141.75 132.721C141.748 131.389 141.36 130.097 140.649 129.054C143.47 127.48 146.176 126.014 148.5 124.823V126.817C148.5 127.6 148.856 128.351 149.489 128.905C150.122 129.458 150.98 129.769 151.875 129.769C154.43 129.769 156.636 129.605 158.671 129.348C158.664 129.488 158.625 129.633 158.625 129.769C158.625 132.939 158.294 144.206 152.33 153.194C152.302 153.236 152.276 153.278 152.251 153.321C151.109 155.256 146.232 160.164 139.667 164.062C133.101 167.96 124.81 171.096 116.437 171.096C108.139 171.096 99.8386 167.963 93.2534 164.062C86.6683 160.162 81.7571 155.242 80.6234 153.321H80.6168C80.5938 153.278 80.5696 153.236 80.5443 153.194C75.7745 146.006 74.6438 137.557 74.3677 132.762L79.305 135.275C79.818 135.536 80.4005 135.673 80.9936 135.674C81.5868 135.675 82.1697 135.539 82.6836 135.28C83.1976 135.021 83.6245 134.648 83.9213 134.199C84.218 133.75 84.3742 133.24 84.3741 132.721V124.823C86.696 126.013 89.4008 127.476 92.2185 129.049C91.5086 130.094 91.123 131.388 91.1242 132.721C91.1242 134.287 91.6576 135.789 92.607 136.896C93.5565 138.003 94.8441 138.625 96.1868 138.625C97.3098 138.623 98.4004 138.186 99.287 137.383C100.174 136.579 100.806 135.454 101.085 134.186C101.612 134.503 102.172 134.822 102.686 135.137C103.048 135.372 103.461 135.542 103.899 135.636C104.337 135.729 104.792 135.745 105.238 135.683C105.683 135.62 106.109 135.48 106.492 135.27C106.874 135.061 107.205 134.787 107.464 134.464C107.723 134.141 107.905 133.776 108 133.39C108.095 133.004 108.101 132.606 108.017 132.218C107.933 131.83 107.761 131.462 107.511 131.133C107.261 130.804 106.939 130.523 106.562 130.305C98.8336 125.574 90.058 120.734 84.3741 118.06V115.01C84.3741 107.628 87.8247 102.413 91.177 98.7568C91.1878 104.48 91.5662 110.577 94.8553 116.33C95.0927 116.745 95.4388 117.106 95.8654 117.382C96.2921 117.658 96.7872 117.843 97.3106 117.92C97.834 117.998 98.3709 117.966 98.8778 117.828C99.3846 117.69 99.8471 117.449 100.228 117.126C100.228 117.126 113.649 106.314 127.736 97.6383ZM57.4924 124.177L66.9122 128.968C67.2416 129.239 67.4918 129.45 67.4989 129.429C67.4985 129.473 67.4989 129.519 67.4989 129.769C67.4989 132.102 67.7103 138.704 70.0434 146.034C69.3248 145.494 68.3565 145 67.6835 144.483C60.7677 139.172 57.6634 131.881 57.4924 124.177ZM175.369 124.217C175.189 131.905 172.09 139.182 165.184 144.489C164.513 145.004 163.547 145.496 162.831 146.034C165.164 138.704 165.375 132.102 165.375 129.769C165.375 129.519 165.376 129.473 165.375 129.429C165.383 129.451 165.646 129.224 166.008 128.928L173.312 125.053C173.984 124.778 174.664 124.502 175.369 124.217ZM125 150.398C124.451 150.384 123.907 150.488 123.414 150.7C122.921 150.912 122.495 151.226 122.172 151.615C122.172 151.615 122.015 151.857 121.104 152.347C120.194 152.837 118.747 153.385 116.437 153.385C114.127 153.385 112.681 152.837 111.77 152.347C110.859 151.857 110.702 151.615 110.702 151.615C110.436 151.304 110.103 151.043 109.722 150.845C109.341 150.647 108.918 150.517 108.48 150.462C108.041 150.406 107.594 150.427 107.164 150.523C106.734 150.619 106.331 150.788 105.976 151.021C105.621 151.253 105.322 151.545 105.096 151.878C104.869 152.212 104.72 152.581 104.657 152.965C104.594 153.349 104.618 153.74 104.728 154.115C104.838 154.491 105.031 154.844 105.297 155.155C105.297 155.155 106.405 156.388 108.237 157.374C110.068 158.36 112.841 159.288 116.437 159.288C120.033 159.288 122.806 158.36 124.637 157.374C126.469 156.388 127.577 155.155 127.577 155.155C127.958 154.723 128.196 154.208 128.263 153.667C128.33 153.125 128.224 152.577 127.957 152.085C127.69 151.592 127.273 151.174 126.751 150.876C126.229 150.579 125.623 150.413 125 150.398Z" fill="black"/>
</svg>
